PathFileType	4	(X/Y/Z)	D:\Share\Shared_Data\Ergonomics\Sit To Stand Pertubation\S2\Unperturbed.trc
DataRate	CameraRate	NumFrames	NumMarkers	Units	OrigDataRate	OrigDataStartFrame	OrigNumFrames	
100	100	14	18	m	100	2053	251
Frame#	Time	R_Toe			R_ASIS			R_Pelvis			V_Sacral			L_Pelvis			L_ASIS			Clavical			R_Acromium			L_Acromium			Sternum			Torso			R_Thigh_Med			R_Thigh_Lat			R_Thigh			R_Shank_Med			R_Shank_Lat			R_Shank			R_Heel			
		X1	Y1	Z1	X2	Y2	Z2	X3	Y3	Z3	X4	Y4	Z4	X5	Y5	Z5	X6	Y6	Z6	X7	Y7	Z7	X8	Y8	Z8	X9	Y9	Z9	X10	Y10	Z10	X11	Y11	Z11	X12	Y12	Z12	X13	Y13	Z13	X14	Y14	Z14	X15	Y15	Z15	X16	Y16	Z16	X17	Y17	Z17	X18	Y18	Z18	

2053	20.52	0.44364426	0.074471954	0.14456398	0.071207748	0.64129919	0.15286101	-0.0024489479	0.66700366	0.18686534	-0.14528125	0.64434583	0.030750792	-0.027383703	0.67248663	-0.14540216	0.068533989	0.65150665	-0.11758859	0.30995032	0.92483795	0.00022898012	0.25320012	1.0062297	0.20286957	0.24210286	1.0027732	-0.18608768	0.27259485	0.76884869	0.006633635	0.29873807	0.88694067	-0.11058304	0.42355786	0.49116324	0.12760249	0.39450708	0.49799066	0.2318284	0.24227232	0.6257522	0.1844286	0.31021182	0.11029883	0.10496887	0.28598743	0.098827621	0.19653696	0.36919507	0.34677823	0.23861516	0.20613655	0.05693504	0.13873695
2054	20.53	0.4437077	0.074455627	0.14455998	0.075118523	0.64275598	0.15253653	0.0017235216	0.66931775	0.18667905	-0.14122385	0.64788947	0.030456326	-0.022855946	0.67483679	-0.14566148	0.072753983	0.65283929	-0.11777787	0.31805289	0.9230874	-1.9861316e-05	0.26154861	1.0056291	0.20242126	0.25108481	1.0021321	-0.1864202	0.27928711	0.76743042	0.0063504128	0.30594553	0.88546307	-0.11076216	0.42579965	0.49030722	0.12727982	0.39686365	0.49736703	0.23150917	0.24553813	0.62615002	0.18414133	0.31038873	0.11017255	0.10491865	0.28610403	0.098725143	0.19651466	0.3706843	0.3462818	0.23836925	0.20629019	0.056486031	0.13849593
2055	20.54	0.44377969	0.074409271	0.14454591	0.078983253	0.64438092	0.15211792	0.0058654122	0.6717204	0.18643828	-0.13727007	0.65132977	0.030123669	-0.018518412	0.67719495	-0.14596844	0.076807693	0.65429852	-0.11806123	0.32586887	0.92157874	-0.00023484142	0.26950302	1.0051464	0.20202193	0.25967386	1.0017028	-0.18671266	0.28537302	0.76622131	0.0060519395	0.31281192	0.88420398	-0.11089291	0.42809134	0.48940814	0.12688904	0.39929031	0.4967424	0.23112253	0.2489388	0.62657239	0.18370442	0.3105466	0.11004555	0.10485773	0.28622247	0.09863726	0.19649164	0.37221533	0.34579416	0.23808167	0.2064326	0.056089458	0.13828954
2056	20.55	0.44385474	0.074348015	0.14452776	0.082804382	0.64618323	0.15162093	0.009976656	0.67423145	0.18614798	-0.13341832	0.65470422	0.029768961	-0.0143565	0.67958319	-0.14630818	0.080706223	0.65589246	-0.11842326	0.33334863	0.92037622	-0.00042009026	0.27703754	1.0048069	0.20167682	0.26782373	1.0015149	-0.18697075	0.29088324	0.76530511	0.0057525754	0.31933511	0.88322217	-0.11098387	0.43042319	0.48847568	0.12644501	0.40177292	0.49611575	0.23068001	0.25246164	0.62702655	0.18316516	0.31068402	0.10992187	0.10478995	0.28633978	0.098566284	0.1964704	0.37377527	0.34531818	0.23776067	0.20655075	0.055790798	0.13814067
2057	20.56	0.4439256	0.07428434	0.14451071	0.086584328	0.64816406	0.15106889	0.014055908	0.67686896	0.18581985	-0.129653	0.65807056	0.029406216	-0.010340529	0.68203241	-0.14666409	0.084474388	0.65762732	-0.1188407	0.34044562	0.91953595	-0.00058132911	0.28414459	1.0046383	0.20138994	0.27550391	1.0015993	-0.18720004	0.2958783	0.76475458	0.005467309	0.32551099	0.88257239	-0.11105299	0.43277966	0.48752261	0.12596087	0.40429294	0.49548807	0.23019164	0.2560842	0.62752112	0.18257472	0.31080072	0.10980374	0.10471869	0.28645392	0.098512398	0.19645287	0.37535156	0.34485739	0.23741541	0.20664052	0.055602936	0.13805476
2058	20.57	0.44398309	0.074227448	0.14449915	0.090323517	0.6503186	0.15048927	0.018098799	0.67964771	0.18546909	-0.12595147	0.66149426	0.029046219	-0.0064305363	0.68457812	-0.14702072	0.088145515	0.65950958	-0.11928609	0.34712051	0.91909882	-0.00072551835	0.29083685	1.0046702	0.20116267	0.28270282	1.0019852	-0.18740436	0.30042981	0.76462079	0.0052059765	0.33134119	0.88230029	-0.11112309	0.4351405	0.48656345	0.12544523	0.40682837	0.49486234	0.22966408	0.25977643	0.62806403	0.1819782	0.3108978	0.10969209	0.10464668	0.28656348	0.098473862	0.19644026	0.37693182	0.34441562	0.23705444	0.20670445	0.055513084	0.13802385
2059	20.58	0.44401706	0.074182396	0.14449669	0.094018883	0.65264191	0.14990947	0.02209754	0.68257892	0.18511247	-0.12229345	0.66503406	0.028697186	-0.0025857377	0.68725537	-0.14736592	0.091752869	0.66154761	-0.11973188	0.35334677	0.9190874	-0.00085987788	0.29714362	1.004933	0.20099297	0.28942929	1.002699	-0.18758559	0.30461752	0.76492999	0.0049681897	0.33683856	0.88243976	-0.111215	0.43748248	0.48561218	0.12490086	0.40935547	0.49424298	0.22910027	0.26350607	0.62866229	0.18140764	0.31097803	0.10958733	0.1045764	0.28666733	0.098447868	0.19643266	0.37850204	0.34399579	0.23668445	0.20674768	0.055495281	0.13803313
2060	20.59	0.44401727	0.074149216	0.14450629	0.097664391	0.65513092	0.14935223	0.02604269	0.6856712	0.18476692	-0.11866663	0.66873407	0.02836491	0.0012257968	0.69009436	-0.14769263	0.095321587	0.66375195	-0.12015503	0.35911554	0.91950635	-0.00099088156	0.30310455	1.0054586	0.20087526	0.295711	1.0037633	-0.18774406	0.30852695	0.76568695	0.0047422323	0.34202875	0.88301215	-0.11134193	0.4397811	0.48468039	0.12432627	0.41184964	0.49363559	0.22850096	0.26724326	0.62932062	0.18087854	0.31104596	0.10948976	0.10451047	0.28676508	0.098431343	0.19642908	0.38004526	0.34360034	0.23630879	0.20677531	0.055521111	0.13806624
2061	20.6	0.44397626	0.074123383	0.14452861	0.101253	0.65778577	0.14883238	0.029925978	0.68893091	0.1844474	-0.11506718	0.6726239	0.028053085	0.0050221834	0.69311792	-0.14799963	0.098865028	0.66613391	-0.12054055	0.36443988	0.92034705	-0.0011237118	0.30876266	1.0062781	0.20080072	0.30159064	1.005196	-0.18787849	0.31224454	0.76687866	0.0045087166	0.3469476	0.88402795	-0.11150686	0.4420112	0.48377649	0.12371863	0.41428662	0.49304657	0.2278667	0.27096182	0.63004297	0.18038997	0.31110693	0.10939948	0.10445071	0.2868573	0.098421539	0.19642773	0.38154276	0.34323199	0.23592682	0.20679111	0.055567127	0.13810942
2062	20.61	0.44389154	0.07409848	0.14456123	0.10477866	0.66060883	0.14835603	0.033742226	0.69236353	0.18416493	-0.11149683	0.67672198	0.027763966	0.0088082685	0.6963429	-0.14828981	0.10238551	0.66870337	-0.12088194	0.36935489	0.92159375	-0.0012613388	0.31415778	1.007422	0.20075879	0.30711917	1.0070089	-0.18798624	0.31585095	0.76848199	0.0042476754	0.35163678	0.88548718	-0.11170435	0.44414923	0.48290643	0.12307683	0.4166431	0.49248367	0.22719987	0.2746394	0.63083264	0.17992946	0.31116458	0.10931586	0.10439735	0.28694516	0.098416046	0.19642711	0.38297665	0.34289404	0.23553571	0.20679724	0.055618191	0.13815364
2063	20.62	0.4437674	0.074069405	0.14459862	0.10823724	0.66360455	0.14792285	0.037489563	0.69597473	0.18392511	-0.10795959	0.68104102	0.027498119	0.012579378	0.69978131	-0.14856631	0.10587798	0.67146948	-0.12117921	0.37391458	0.92323157	-0.001403011	0.31932169	1.0089161	0.20073965	0.31234879	1.0092084	-0.18806522	0.31941425	0.77047095	0.0039463294	0.35613745	0.88738275	-0.11192393	0.44617474	0.48207507	0.12240399	0.41889792	0.4919548	0.22650581	0.27825717	0.63169281	0.17948042	0.31122021	0.10923801	0.10434952	0.28702905	0.098412415	0.19642679	0.38433295	0.34258963	0.23513414	0.20679439	0.055667744	0.1381953
2064	20.63	0.44361694	0.074035294	0.14463283	0.11162646	0.66677856	0.14752858	0.041168736	0.699771	0.18372795	-0.10445915	0.68558997	0.027254196	0.016325985	0.70344116	-0.14882947	0.10933406	0.67443927	-0.12143623	0.37818536	0.92525067	-0.0015441344	0.32427707	1.0107813	0.20073598	0.31732718	1.0117949	-0.18811542	0.32298346	0.77282324	0.0036042256	0.36048645	0.88970087	-0.11215244	0.44807169	0.48128665	0.12170839	0.42103308	0.4914671	0.22579333	0.28180087	0.6326272	0.17902946	0.31127286	0.10916542	0.10430676	0.28710861	0.098408287	0.19642793	0.38560062	0.34232132	0.23472343	0.20678278	0.05571619	0.13823499
2065	20.64	0.44346106	0.074000267	0.14465495	0.11494623	0.67013611	0.14716708	0.04478286	0.70375806	0.18356905	-0.10099725	0.69037518	0.027030071	0.020037264	0.70732727	-0.1490762	0.11274496	0.67761743	-0.12165868	0.38223862	0.92764661	-0.0016784619	0.32903864	1.0130297	0.20074316	0.32209381	1.014764	-0.18813885	0.3265834	0.77552289	0.0032337778	0.36471344	0.89242426	-0.11237541	0.44982846	0.48054449	0.12100238	0.42303427	0.49102563	0.22507385	0.28526099	0.63363849	0.17857121	0.31132016	0.10909834	0.10426945	0.2871825	0.098401993	0.19643225	0.38677039	0.34209073	0.23430769	0.206763	0.055768093	0.13827579
2066	20.65	0.44332019	0.073970398	0.14465814	0.11819882	0.67368018	0.14683159	0.048337486	0.70793933	0.18344304	-0.097573219	0.69539978	0.026823463	0.023702869	0.71144122	-0.14930249	0.11610297	0.68100623	-0.12185287	0.3861427	0.93041791	-0.0017999718	0.33361572	1.0156639	0.20075905	0.32667804	1.0181044	-0.18813768	0.33021402	0.77856097	0.0028568389	0.36884006	0.89553265	-0.11257804	0.45143802	0.47985129	0.12030038	0.42489209	0.49063312	0.22435979	0.28863287	0.63472894	0.17810886	0.31135931	0.10903728	0.10423809	0.28724915	0.098392982	0.19644107	0.38783469	0.34189767	0.23389354	0.20673648	0.055828617	0.13832082
